<?xml version="1.0"?>
<svg version="1.1" xmlns="http://www.w3.org/2000/svg" width="400" height="200"><path fill="#e94949" d="M16.07666015625,101.07666015625q0-0.66650390625,0.042724609375-1.956787109375t0.128173828125-2.691650390625t0.22216796875-2.623291015625t0.39306640625-1.751708984375q0.13671875-0.2734375,0.418701171875-0.367431640625t0.555419921875-0.093994140625q0.1708984375,0,0.572509765625,0.093994140625t0.401611328125,0.367431640625q0,0.42724609375-0.1025390625,1.614990234375t-0.18798828125,2.725830078125t-0.11962890625,3.19580078125l0,0.73486328125q0,1.24755859375,0.08544921875,2.34130859375q0.11962890625,1.4013671875,0.452880859375,2.30712890625t0.999755859375,0.90576171875q0.90576171875,0,1.69189453125-0.538330078125t1.435546875-1.4013671875t1.170654296875-1.93115234375t0.888671875-2.10205078125t0.615234375-1.905517578125t0.350341796875-1.3671875q0.1025390625-0.56396484375,0.179443359375-1.50390625t0.247802734375-1.845703125t0.606689453125-1.572265625t1.273193359375-0.66650390625q0.49560546875,0,0.948486328125,0.1708984375t0.589599609375,0.73486328125q-0.2734375,1.04248046875-0.46142578125,2.896728515625t-0.299072265625,3.887939453125t-0.162353515625,3.939208984375t-0.05126953125,3.101806640625q0,1.3330078125,0.0341796875,3.255615234375t0.11962890625,3.973388671875t0.196533203125,3.990478515625t0.247802734375,3.238525390625q0.13671875,0.2734375,0.13671875,0.63232421875q0,0.42724609375-0.1708984375,0.66650390625t-0.469970703125,0.35888671875t-0.6494140625,0.15380859375t-0.675048828125,0.0341796875q-0.49560546875,0-1.102294921875-0.1708984375t-0.743408203125-0.70068359375q-0.1708984375-0.63232421875-0.281982421875-1.666259765625t-0.162353515625-2.255859375t-0.08544921875-2.554931640625t-0.0341796875-2.554931640625t0.01708984375-2.27294921875t0.01708984375-1.717529296875q0-1.298828125,0.05126953125-2.554931640625t0.11962890625-2.554931640625q-0.42724609375,0.87158203125-0.999755859375,1.768798828125t-1.307373046875,1.632080078125t-1.640625,1.204833984375t-1.96533203125,0.469970703125q-1.3671875,0-2.0849609375-0.73486328125t-1.04248046875-1.820068359375t-0.367431640625-2.30712890625t-0.042724609375-2.213134765625z M33.434301757812,111.12548828125q0-1.162109375,0.316162109375-2.23876953125t0.948486328125-1.922607421875t1.580810546875-1.35009765625t2.196044921875-0.504150390625q0.76904296875,0,1.700439453125,0.230712890625t1.751708984375,0.68359375t1.3671875,1.153564453125t0.546875,1.6064453125q0,0.42724609375-0.145263671875,0.6494140625t-0.589599609375,0.22216796875l-0.18798828125-0.0341796875q0.49560546875,1.3330078125,0.8544921875,2.734375t0.70068359375,2.802734375q0.13671875,0.2734375,0.205078125,0.487060546875t0.068359375,0.418701171875q0,0.2734375-0.15380859375,0.452880859375t-0.401611328125,0.264892578125t-0.5126953125,0.11962890625t-0.469970703125,0.0341796875q-0.73486328125,0-1.102294921875-0.25634765625t-0.52978515625-0.70068359375t-0.196533203125-0.999755859375t-0.13671875-1.119384765625q-0.205078125,0.66650390625-0.538330078125,1.298828125t-0.7861328125,1.136474609375t-1.068115234375,0.80322265625t-1.38427734375,0.299072265625q-1.1279296875,0-1.89697265625-0.6494140625t-1.239013671875-1.597900390625t-0.68359375-2.025146484375t-0.213623046875-1.99951171875z M35.861059570312,110.88623046875q0,0.63232421875,0.08544921875,1.3330078125t0.281982421875,1.38427734375t0.504150390625,1.290283203125t0.76904296875,1.068115234375q0.83740234375-0.90576171875,1.239013671875-2.20458984375t0.7177734375-2.503662109375t0.7177734375-2.06787109375t1.239013671875-0.863037109375q0.52978515625,0,0.888671875,0.18798828125q-0.1708984375-0.42724609375-0.56396484375-0.828857421875t-0.880126953125-0.73486328125t-1.00830078125-0.546875t-0.982666015625-0.213623046875q-0.13671875,0-0.316162109375,0.042724609375t-0.281982421875,0.008544921875q-0.70068359375,0.205078125-1.153564453125,0.709228515625t-0.73486328125,1.187744140625t-0.401611328125,1.4013671875t-0.11962890625,1.35009765625z M48.245556640625,106.71630859375q0-0.70068359375,0.41015625-1.204833984375t0.999755859375-0.8203125t1.290283203125-0.469970703125t1.298828125-0.15380859375q0.46142578125,0,1.23046875,0.13671875t1.50390625,0.41015625t1.273193359375,0.7177734375t0.538330078125,1.04248046875q0,0.2734375-0.205078125,0.487060546875t-0.42724609375,0.213623046875q-0.46142578125,0-0.83740234375-0.299072265625t-0.777587890625-0.63232421875t-0.880126953125-0.63232421875t-1.07666015625-0.299072265625t-1.085205078125,0.384521484375t-0.487060546875,1.016845703125q0,1.04248046875,0.73486328125,2.042236328125t1.614990234375,2.10205078125t1.614990234375,2.315673828125t0.73486328125,2.68310546875q0,0.63232421875-0.264892578125,1.068115234375t-0.70068359375,0.709228515625t-0.982666015625,0.418701171875t-1.0595703125,0.145263671875q-0.56396484375,0-1.31591796875-0.264892578125t-1.41845703125-0.70068359375t-1.119384765625-1.016845703125t-0.452880859375-1.21337890625q0-0.3076171875,0.435791015625-0.39306640625t0.640869140625-0.08544921875q0.1025390625,0,0.316162109375,0.068359375t0.418701171875,0.15380859375t0.367431640625,0.18798828125t0.128173828125,0.22216796875q0.1708984375,0.205078125,0.521240234375,0.606689453125t0.70068359375,0.6494140625t0.615234375,0.179443359375t0.264892578125-0.76904296875q0-1.3330078125-0.7177734375-2.452392578125t-1.563720703125-2.1875t-1.563720703125-2.119140625t-0.7177734375-2.247314453125z M60.288256835937,110.71533203125q0-1.572265625,0.367431640625-3.084716796875t0.623779296875-3.016357421875q0.068359375-0.39306640625,0.538330078125-0.487060546875t0.794677734375-0.093994140625q0.56396484375,0,0.90576171875,0.1708984375q0.13671875,0.068359375,0.25634765625,0.15380859375t0.11962890625,0.22216796875q0,1.4697265625-0.350341796875,2.87109375t-0.350341796875,2.9736328125q0,0.52978515625,0.076904296875,0.999755859375t0.145263671875,0.931396484375l0.1025390625,0.49560546875q0,0.13671875,0.01708984375,0.2392578125t0.05126953125,0.2392578125q0,0.3076171875-0.435791015625,0.418701171875t-0.760498046875,0.111083984375q-0.49560546875,0-0.914306640625-0.196533203125t-0.657958984375-0.675048828125l-0.2392578125-0.49560546875q-0.205078125-0.39306640625-0.205078125-0.880126953125t-0.08544921875-0.897216796875z M61.382006835937,100.42724609375l0-0.32470703125q0-0.80322265625,0.401611328125-1.435546875t1.204833984375-0.63232421875q0.1025390625,0,0.196533203125,0.01708984375t0.196533203125,0.01708984375q0.205078125,0.0341796875,0.538330078125,0.162353515625t0.333251953125,0.401611328125l0,0.0341796875q-0.068359375,0.13671875-0.08544921875,0.281982421875t-0.08544921875,0.247802734375l0.0341796875-0.0341796875q-0.205078125,0.52978515625-0.333251953125,0.8544921875t-0.281982421875,0.521240234375t-0.384521484375,0.281982421875t-0.657958984375,0.08544921875q-0.068359375,0-0.2392578125-0.01708984375t-0.367431640625-0.068359375t-0.333251953125-0.13671875t-0.13671875-0.25634765625z M67.76796875,111.2109375l0-0.49560546875q0-0.615234375,0.0341796875-1.162109375q0.0341796875-0.76904296875,0.0341796875-1.2646484375q0-0.2734375,0.0341796875-0.623779296875t0.1708984375-0.555419921875q0.1708984375-0.1708984375,0.401611328125-0.350341796875t0.504150390625-0.179443359375q0.87158203125,0,1.3671875,0.196533203125t0.52978515625,0.811767578125l0.068359375,0.52978515625q0.3076171875-0.73486328125,0.8203125-1.820068359375t1.187744140625-2.06787109375t1.52099609375-1.6748046875t1.785888671875-0.692138671875q0.87158203125,0,1.435546875,0.8203125t0.897216796875,2.093505859375t0.469970703125,2.8369140625t0.18798828125,3.067626953125t0.068359375,2.742919921875t0.11962890625,1.871337890625q0.068359375,0.52978515625,0.230712890625,1.119384765625t0.162353515625,1.085205078125q0,0.13671875-0.196533203125,0.264892578125t-0.418701171875,0.213623046875t-0.452880859375,0.13671875t-0.333251953125,0.05126953125q-0.66650390625,0-0.948486328125-0.999755859375t-0.350341796875-2.503662109375t-0.068359375-3.255615234375t-0.11962890625-3.255615234375t-0.487060546875-2.503662109375t-1.170654296875-1.033935546875q-0.73486328125,0-1.52099609375,0.948486328125t-1.35009765625,2.520751953125q-0.546875,1.572265625-0.751953125,3.57177734375q-0.068359375,0.63232421875-0.068359375,1.2646484375q0,1.38427734375,0.29052734375,2.7685546875q0.0341796875,0.2392578125-0.196533203125,0.35888671875t-0.572509765625,0.18798828125t-0.692138671875,0.08544921875t-0.538330078125,0.01708984375q-0.66650390625,0-1.068115234375-0.469970703125t-0.623779296875-1.204833984375t-0.299072265625-1.649169921875t-0.093994140625-1.802978515625z M89.853857421875,117.10693359375q0-0.1025390625,0.068359375-0.726318359375t0.179443359375-1.52099609375t0.247802734375-1.93115234375t0.2392578125-1.956787109375t0.179443359375-1.62353515625t0.076904296875-0.93994140625q-0.13671875-0.068359375-0.333251953125-0.196533203125t-0.196533203125-0.299072265625q0-0.2392578125,0.230712890625-0.384521484375t0.401611328125-0.213623046875q0.068359375-0.87158203125,0.1708984375-2.4267578125t0.316162109375-3.358154296875t0.59814453125-3.6572265625t1.016845703125-3.36669921875t1.52099609375-2.469482421875t2.1875-0.95703125t2.1533203125,0.8203125t1.392822265625,2.13623046875t0.8203125,2.92236328125t0.42724609375,3.19580078125t0.179443359375,2.9736328125t0.068359375,2.2216796875q0.0341796875,0.52978515625,0.25634765625,0.709228515625t0.487060546875,0.247802734375t0.478515625,0.15380859375t0.213623046875,0.42724609375q0,0.39306640625-0.478515625,0.546875t-0.751953125,0.18798828125q0.1708984375,2.13623046875,0.469970703125,4.2041015625t0.794677734375,4.169921875q0.068359375,0.39306640625,0.18798828125,0.794677734375t0.11962890625,0.777587890625q0,0.2734375-0.18798828125,0.452880859375t-0.487060546875,0.281982421875t-0.59814453125,0.13671875t-0.504150390625,0.0341796875q-0.76904296875,0-1.298828125-0.29052734375t-0.70068359375-1.11083984375q-0.46142578125-2.20458984375-0.90576171875-4.63134765625q-0.3759765625-2.10205078125-0.3759765625-4.08447265625q0-0.3076171875,0.01708984375-0.615234375q-1.435546875,0-2.88818359375,0.068359375t-2.78564453125,0.5126953125q-0.0341796875,0.46142578125-0.1708984375,1.7431640625t-0.3076171875,2.75146484375t-0.350341796875,2.811279296875t-0.213623046875,1.905517578125q-0.0341796875,0.2392578125-0.350341796875,0.452880859375t-0.68359375,0.230712890625t-0.6494140625-0.230712890625t-0.281982421875-0.880126953125z M93.049658203125,106.75048828125q1.3330078125-0.3076171875,2.674560546875-0.35888671875t2.708740234375-0.11962890625q-0.068359375-0.42724609375-0.0341796875-0.880126953125t0.0341796875-0.914306640625q0-1.00830078125-0.05126953125-2.34130859375t-0.15380859375-2.7001953125t-0.264892578125-2.691650390625t-0.367431640625-2.3583984375t-0.435791015625-1.649169921875t-0.504150390625-0.615234375q-0.52978515625,0.0341796875-0.999755859375,0.914306640625t-0.8544921875,2.23876953125t-0.70068359375,3.0419921875t-0.52978515625,3.289794921875t-0.350341796875,2.99072265625t-0.1708984375,2.1533203125z M107.07478027344,106.71630859375q0-0.70068359375,0.41015625-1.204833984375t0.999755859375-0.8203125t1.290283203125-0.469970703125t1.298828125-0.15380859375q0.46142578125,0,1.23046875,0.13671875t1.50390625,0.41015625t1.273193359375,0.7177734375t0.538330078125,1.04248046875q0,0.2734375-0.205078125,0.487060546875t-0.42724609375,0.213623046875q-0.46142578125,0-0.83740234375-0.299072265625t-0.777587890625-0.63232421875t-0.880126953125-0.63232421875t-1.07666015625-0.299072265625t-1.085205078125,0.384521484375t-0.487060546875,1.016845703125q0,1.04248046875,0.73486328125,2.042236328125t1.614990234375,2.10205078125t1.614990234375,2.315673828125t0.73486328125,2.68310546875q0,0.63232421875-0.264892578125,1.068115234375t-0.70068359375,0.709228515625t-0.982666015625,0.418701171875t-1.0595703125,0.145263671875q-0.56396484375,0-1.31591796875-0.264892578125t-1.41845703125-0.70068359375t-1.119384765625-1.016845703125t-0.452880859375-1.21337890625q0-0.3076171875,0.435791015625-0.39306640625t0.640869140625-0.08544921875q0.1025390625,0,0.316162109375,0.068359375t0.418701171875,0.15380859375t0.367431640625,0.18798828125t0.128173828125,0.22216796875q0.1708984375,0.205078125,0.521240234375,0.606689453125t0.70068359375,0.6494140625t0.615234375,0.179443359375t0.264892578125-0.76904296875q0-1.3330078125-0.7177734375-2.452392578125t-1.563720703125-2.1875t-1.563720703125-2.119140625t-0.7177734375-2.247314453125z M119.11748046875,117.1923828125q0-0.49560546875,0.042724609375-1.04248046875t0.076904296875-1.025390625l0.1025390625-2.5634765625q0.1708984375-3.076171875,0.418701171875-6.0498046875t0.418701171875-6.015625q0.1025390625-1.6748046875,0.15380859375-3.289794921875t0.15380859375-3.289794921875q-0.068359375-0.13671875-0.068359375-0.18798828125q0-0.2392578125,0.179443359375-0.3759765625t0.418701171875-0.230712890625t0.504150390625-0.128173828125t0.401611328125-0.0341796875l0.39306640625,0q0.52978515625,0.068359375,0.76904296875,0.333251953125t0.3076171875,0.63232421875t0.0341796875,0.7861328125t-0.0341796875,0.777587890625q0,2.47802734375-0.11962890625,5.050048828125t-0.2734375,5.1611328125t-0.281982421875,5.17822265625t-0.128173828125,5.118408203125l0,1.1962890625q0,0.80322265625-0.452880859375,1.0595703125t-1.256103515625,0.25634765625q-0.70068359375,0-1.23046875-0.3076171875t-0.52978515625-1.00830078125z M126.95607910156,111.12548828125q0-1.162109375,0.316162109375-2.23876953125t0.948486328125-1.922607421875t1.580810546875-1.35009765625t2.196044921875-0.504150390625q0.76904296875,0,1.700439453125,0.230712890625t1.751708984375,0.68359375t1.3671875,1.153564453125t0.546875,1.6064453125q0,0.42724609375-0.145263671875,0.6494140625t-0.589599609375,0.22216796875l-0.18798828125-0.0341796875q0.49560546875,1.3330078125,0.8544921875,2.734375t0.70068359375,2.802734375q0.13671875,0.2734375,0.205078125,0.487060546875t0.068359375,0.418701171875q0,0.2734375-0.15380859375,0.452880859375t-0.401611328125,0.264892578125t-0.5126953125,0.11962890625t-0.469970703125,0.0341796875q-0.73486328125,0-1.102294921875-0.25634765625t-0.52978515625-0.70068359375t-0.196533203125-0.999755859375t-0.13671875-1.119384765625q-0.205078125,0.66650390625-0.538330078125,1.298828125t-0.7861328125,1.136474609375t-1.068115234375,0.80322265625t-1.38427734375,0.299072265625q-1.1279296875,0-1.89697265625-0.6494140625t-1.239013671875-1.597900390625t-0.68359375-2.025146484375t-0.213623046875-1.99951171875z M129.38283691406,110.88623046875q0,0.63232421875,0.08544921875,1.3330078125t0.281982421875,1.38427734375t0.504150390625,1.290283203125t0.76904296875,1.068115234375q0.83740234375-0.90576171875,1.239013671875-2.20458984375t0.7177734375-2.503662109375t0.7177734375-2.06787109375t1.239013671875-0.863037109375q0.52978515625,0,0.888671875,0.18798828125q-0.1708984375-0.42724609375-0.56396484375-0.828857421875t-0.880126953125-0.73486328125t-1.00830078125-0.546875t-0.982666015625-0.213623046875q-0.13671875,0-0.316162109375,0.042724609375t-0.281982421875,0.008544921875q-0.70068359375,0.205078125-1.153564453125,0.709228515625t-0.73486328125,1.187744140625t-0.401611328125,1.4013671875t-0.11962890625,1.35009765625z M141.78442382813,111.2109375l0-0.49560546875q0-0.615234375,0.0341796875-1.162109375q0.0341796875-0.76904296875,0.0341796875-1.2646484375q0-0.2734375,0.0341796875-0.623779296875t0.1708984375-0.555419921875q0.1708984375-0.1708984375,0.401611328125-0.350341796875t0.504150390625-0.179443359375q0.87158203125,0,1.3671875,0.196533203125t0.52978515625,0.811767578125l0.068359375,0.52978515625q0.3076171875-0.73486328125,0.8203125-1.820068359375t1.187744140625-2.06787109375t1.52099609375-1.6748046875t1.785888671875-0.692138671875q0.87158203125,0,1.435546875,0.8203125t0.897216796875,2.093505859375t0.469970703125,2.8369140625t0.18798828125,3.067626953125t0.068359375,2.742919921875t0.11962890625,1.871337890625q0.068359375,0.52978515625,0.230712890625,1.119384765625t0.162353515625,1.085205078125q0,0.13671875-0.196533203125,0.264892578125t-0.418701171875,0.213623046875t-0.452880859375,0.13671875t-0.333251953125,0.05126953125q-0.66650390625,0-0.948486328125-0.999755859375t-0.350341796875-2.503662109375t-0.068359375-3.255615234375t-0.11962890625-3.255615234375t-0.487060546875-2.503662109375t-1.170654296875-1.033935546875q-0.73486328125,0-1.52099609375,0.948486328125t-1.35009765625,2.520751953125q-0.546875,1.572265625-0.751953125,3.57177734375q-0.068359375,0.63232421875-0.068359375,1.2646484375q0,1.38427734375,0.29052734375,2.7685546875q0.0341796875,0.2392578125-0.196533203125,0.35888671875t-0.572509765625,0.18798828125t-0.692138671875,0.08544921875t-0.538330078125,0.01708984375q-0.66650390625,0-1.068115234375-0.469970703125t-0.623779296875-1.204833984375t-0.299072265625-1.649169921875t-0.093994140625-1.802978515625z"/><path fill="#" d=""/></svg>
